# xmcd
#
# Track frame offsets: 
#        150
#        16414
#        35510
#        52365
#        65988
#        86614
#        98360
#        116662
#        140004
#        173095
#        190901
#
# Disc length: 2853 seconds
#
# Revision: 0
# Processed by: cddbd v1.5.2PL0 Copyright (c) Steve Scherf et al.
# Submitted via: ExactAudioCopy v1.3
#
DISCID=9c0b230b
DTITLE=Gina Aspenes - Tambourine
DYEAR=2015
DGENRE=Blues
TTITLE0=Drive like I never been hurt
TTITLE1=Swear by the rules
TTITLE2=I am your tambourine
TTITLE3=Beyond here lies nothing
TTITLE4=Broken
TTITLE5=Here he comes
TTITLE6=The one u wanna c
TTITLE7=I you think it's hot here
TTITLE8=Que sera sera
TTITLE9=Under the spell of the handout
TTITLE10=You never need nobody
EXTD=
EXTT0=
EXTT1=
EXTT2=
EXTT3=
EXTT4=
EXTT5=
EXTT6=
EXTT7=
EXTT8=
EXTT9=
EXTT10=
PLAYORDER=
